#!OML:ASF F:\VICON\USERDATA\INSTALL\rory3\rory3.ASF
:FULLY-SPECIFIED
:DEGREES
209
root 1.1781 28.1245 1.27484 0.700047 5.79722 1.2742
lowerback 10.1845 -0.725451 -1.35597
upperback -0.413747 -1.1064 0.366388
thorax -6.12064 -0.493924 1.31683
lowerneck -13.6062 -2.6923 -6.50247
upperneck 10.477 -3.14796 5.7575
head 5.58297 -1.37878 2.59802
rclavicle -1.09083e-014 -1.66979e-014
rhumerus -40.118 -11.2281 -46.3432
rradius 26.3658
rwrist 8.80337
rhand -28.0378 -0.0605906
rfingers 7.12502
rthumb -1.42245 -30.0356
lclavicle -1.09083e-014 -1.66979e-014
lhumerus -44.3529 11.4983 52.2709
lradius 40.5897
lwrist 8.68396
lhand -26.3876 16.8611
lfingers 7.12502
lthumb 0.171396 46.8408
rfemur -8.96182 13.5762 19.103
rtibia 24.62
rfoot 10.2009 -16.3949
rtoes -7.40677
lfemur -4.58047 -3.19769 -21.6227
ltibia 17.0911
lfoot 17.5811 14.5231
ltoes -6.49149
210
root 1.18765 28.1688 1.29927 0.728567 5.77881 1.39792
lowerback 10.0522 -0.737282 -1.45524
upperback -0.427446 -1.13606 0.30634
thorax -6.05869 -0.506987 1.31198
lowerneck -13.4262 -2.64027 -6.53039
upperneck 10.5763 -3.08232 5.72479
head 5.57972 -1.35318 2.59962
rclavicle -1.4561e-014 -1.35174e-014
rhumerus -40.5412 -11.7566 -47.5452
rradius 25.5085
rwrist 9.96949
rhand -28.2748 0.842131
rfingers 7.12502
rthumb -1.65135 -29.1312
lclavicle -1.4561e-014 -1.35174e-014
lhumerus -44.1568 11.8727 53.4762
lradius 39.516
lwrist 8.20922
lhand -26.4991 16.3144
lfingers 7.12502
lthumb 0.0636808 46.2941
rfemur -9.34905 13.4744 18.7166
rtibia 24.9752
rfoot 9.82467 -16.3388
rtoes -7.97521
lfemur -4.61061 -3.49773 -21.6704
ltibia 16.8552
lfoot 17.5754 14.0779
ltoes -7.42105
211
root 1.19947 28.1998 1.32401 0.672173 5.81942 1.52949
lowerback 9.94183 -0.733087 -1.51333
upperback -0.369317 -1.13843 0.252849
thorax -5.93491 -0.508914 1.28627
lowerneck -13.582 -2.65247 -6.64915
upperneck 10.9113 -3.08648 5.7837
head 5.71406 -1.35363 2.6377
rclavicle -2.08475e-014 2.5842e-015
rhumerus -40.8884 -12.2152 -48.7524
rradius 24.7672
rwrist 10.6277
rhand -28.5975 1.55912
rfingers 7.12502
rthumb -1.96301 -28.4116
lclavicle -2.08475e-014 2.5842e-015
lhumerus -43.9019 11.992 54.7723
lradius 38.6953
lwrist 7.78029
lhand -26.4476 16.1538
lfingers 7.12502
lthumb 0.113441 46.1335
rfemur -9.61599 13.2305 18.3453
rtibia 25.3386
rfoot 9.49714 -16.1249
rtoes -8.46562
lfemur -4.52463 -3.73156 -21.7468
ltibia 16.6521
lfoot 16.8875 13.3502
ltoes -9.93104
212
root 1.21063 28.2157 1.3424 0.547007 5.84739 1.54769
lowerback 9.90971 -0.697012 -1.404
upperback -0.265502 -1.07918 0.201799
thorax -5.81219 -0.485709 1.1608
lowerneck -13.9385 -2.71286 -6.69923
upperneck 11.3296 -3.1462 5.74957
head 5.9098 -1.3822 2.62883
rclavicle 4.32357e-015 -5.76476e-015
rhumerus -41.2012 -12.5717 -49.9617
rradius 24.1777
rwrist 10.975
rhand -28.811 1.85465
rfingers 7.12502
rthumb -2.16916 -28.1141
lclavicle 4.32357e-015 -5.76476e-015
lhumerus -43.4805 11.781 56.21
lradius 38.0399
lwrist 7.66264
lhand -26.4789 16.0929
lfingers 7.12502
lthumb 0.0831637 46.0726
rfemur -9.74354 13.0578 18.1201
rtibia 25.6514
rfoot 9.0726 -16.2332
rtoes -7.85091
lfemur -4.41826 -3.91265 -21.7042
ltibia 16.523
lfoot 16.2318 12.7302
ltoes -11.0934
213
root 1.22091 28.2176 1.35674 0.454959 5.87134 1.44039
lowerback 9.92292 -0.697621 -1.18714
upperback -0.231693 -1.05546 0.186187
thorax -5.78881 -0.481042 1.01874
lowerneck -14.096 -2.68498 -6.65649
upperneck 11.5755 -3.10067 5.64552
head 6.00864 -1.36409 2.59289
rclavicle 1.05604e-015 3.97569e-016
rhumerus -41.4659 -12.5769 -51.262
rradius 23.675
rwrist 10.9699
rhand -28.8875 1.84378
rfingers 7.12502
rthumb -2.24305 -28.1242
lclavicle 1.05604e-015 3.97569e-016
lhumerus -43.0109 11.6483 57.458
lradius 37.3061
lwrist 7.51056
lhand -26.2295 15.8622
lfingers 7.12502
lthumb 0.324063 45.8417
rfemur -9.86568 12.9765 18.0218
rtibia 25.8888
rfoot 8.57914 -16.54
rtoes -7.17407
lfemur -4.42774 -4.03251 -21.513
ltibia 16.471
lfoot 16.199 12.3546
ltoes -10.1466
214
root 1.22966 28.208 1.36751 0.356699 5.97029 1.35967
lowerback 10.0519 -0.731708 -1.03366
upperback -0.253618 -1.08377 0.196373
thorax -5.88654 -0.498377 0.94959
lowerneck -14.142 -2.6158 -6.77012
upperneck 11.7189 -3.00145 5.75055
head 6.05874 -1.31241 2.65526
rclavicle -2.38542e-015 1.0138e-014
rhumerus -41.6381 -12.2243 -52.6408
rradius 23.242
rwrist 10.6953
rhand -28.9122 1.94591
rfingers 7.12502
rthumb -2.26687 -28.0218
lclavicle -2.38542e-015 1.0138e-014
lhumerus -42.5736 11.6441 58.6015
lradius 36.6525
lwrist 7.08211
lhand -26.012 15.9202
lfingers 7.12502
lthumb 0.534125 45.8993
rfemur -10.076 13.0027 17.8852
rtibia 26.07
rfoot 8.40074 -16.9225
rtoes -6.77474
lfemur -4.47327 -4.0646 -21.3483
ltibia 16.477
lfoot 16.5701 11.9251
ltoes -9.43912
215
root 1.2399 28.1868 1.38277 0.208741 6.1102 1.31832
lowerback 10.1874 -0.758761 -0.944631
upperback -0.267049 -1.10796 0.239238
thorax -5.97747 -0.511436 0.950472
lowerneck -14.124 -2.57769 -6.83926
upperneck 11.7178 -2.92799 5.6923
head 6.05072 -1.28478 2.655
rclavicle -7.46685e-015 1.78906e-015
rhumerus -41.7561 -11.5905 -54.0026
rradius 22.9648
rwrist 10.2374
rhand -28.9017 1.74207
rfingers 7.12502
rthumb -2.25675 -28.2257
lclavicle -7.46685e-015 1.78906e-015
lhumerus -42.1826 11.5798 59.8144
lradius 36.1792
lwrist 6.42096
lhand -26.2585 16.3625
lfingers 7.12502
lthumb 0.2961 46.342
rfemur -10.2273 13.1066 17.7118
rtibia 26.201
rfoot 8.33036 -17.312
rtoes -6.41695
lfemur -4.41056 -4.16266 -21.2372
ltibia 16.4571
lfoot 16.4276 11.5477
ltoes -9.92835
216
root 1.25393 28.1513 1.40738 0.0155424 6.14597 1.32018
lowerback 10.2337 -0.736372 -0.908312
upperback -0.245854 -1.07339 0.250521
thorax -5.98244 -0.495397 0.937179
lowerneck -14.1341 -2.56548 -6.65027
upperneck 11.7715 -2.90937 5.41143
head 6.06114 -1.28914 2.53573
rclavicle -1.71203e-014 -8.94531e-015
rhumerus -41.9525 -11.1941 -55.1883
rradius 22.7832
rwrist 10.191
rhand -28.904 1.36588
rfingers 7.12502
rthumb -2.25904 -28.6019
lclavicle -1.71203e-014 -8.94531e-015
lhumerus -41.8479 11.4311 60.9059
lradius 35.942
lwrist 5.62704
lhand -26.4705 16.8888
lfingers 7.12502
lthumb 0.0913239 46.8685
rfemur -10.1588 13.1655 17.5163
rtibia 26.2719
rfoot 8.10669 -17.2635
rtoes -6.15504
lfemur -4.23282 -4.2919 -21.1953
ltibia 16.3862
lfoot 16.2261 11.3744
ltoes -10.5217
217
root 1.26397 28.1039 1.43429 -0.217619 6.20625 1.41096
lowerback 10.2959 -0.712619 -0.976257
upperback -0.207374 -1.05307 0.205578
thorax -5.9771 -0.484197 0.925956
lowerneck -14.0889 -2.55151 -6.57395
upperneck 11.7883 -2.90454 5.3782
head 6.05689 -1.28661 2.51339
rclavicle 9.55409e-015 -8.15017e-015
rhumerus -42.0911 -11.0884 -56.1882
rradius 22.4557
rwrist 10.5774
rhand -28.9595 2.01697
rfingers 7.12502
rthumb -2.31256 -27.9502
lclavicle 9.55409e-015 -8.15017e-015
lhumerus -41.4648 11.0966 61.9086
lradius 35.7495
lwrist 4.93649
lhand -26.5323 16.867
lfingers 7.12502
lthumb 0.0316803 46.8467
rfemur -10.0144 13.2556 17.2625
rtibia 26.333
rfoot 7.89455 -17.2356
rtoes -4.85551
lfemur -3.97925 -4.45382 -21.2552
ltibia 16.2907
lfoot 16.5079 11.2613
ltoes -9.95557
218
root 1.27422 28.0461 1.45718 -0.499093 6.4108 1.38858
lowerback 10.4354 -0.757332 -0.914613
upperback -0.156659 -1.10571 0.210479
thorax -6.00217 -0.511734 0.906248
lowerneck -14.0801 -2.5163 -6.59622
upperneck 11.7768 -2.8509 5.36794
head 6.04857 -1.26253 2.51889
rclavicle -6.95746e-016 3.77691e-015
rhumerus -42.1461 -10.6989 -57.2528
rradius 22.2336
rwrist 10.8304
rhand -29.4131 2.38847
rfingers 7.12502
rthumb -2.75068 -27.5735
lclavicle -6.95746e-016 3.77691e-015
lhumerus -41.0414 10.669 62.95
lradius 35.5855
lwrist 4.48746
lhand -26.9902 16.8281
lfingers 7.12502
lthumb -0.410579 46.8074
rfemur -9.87074 13.3578 17.1451
rtibia 26.4329
rfoot 7.73713 -17.3867
rtoes -3.08195
lfemur -3.68846 -4.60069 -21.1904
ltibia 16.172
lfoot 17.1633 11.1358
ltoes -8.19041
219
root 1.28594 27.9717 1.48076 -0.680214 6.56948 1.3197
lowerback 10.4593 -0.810442 -0.869019
upperback -0.118807 -1.16781 0.258583
thorax -5.97429 -0.543183 0.940461
lowerneck -14.277 -2.4735 -6.59454
upperneck 11.9587 -2.7875 5.37298
head 6.13552 -1.22894 2.52625
rclavicle -6.29899e-015 -1.39149e-015
rhumerus -42.146 -9.9731 -58.4199
rradius 22.1477
rwrist 10.7125
rhand -29.6368 2.44241
rfingers 7.12502
rthumb -2.96669 -27.5167
lclavicle -6.29899e-015 -1.39149e-015
lhumerus -40.6611 10.2613 63.9325
lradius 35.555
lwrist 4.12249
lhand -27.4002 17.3044
lfingers 7.12502
lthumb -0.80659 47.2826
rfemur -9.82454 13.4245 17.0346
rtibia 26.5204
rfoot 7.41516 -17.3424
rtoes -2.67019
lfemur -3.52831 -4.69212 -21.0745
ltibia 16.0882
lfoot 18.1083 11.1095
ltoes -6.38234
